<?xml version="1.0" encoding="UTF-8" standalone="no"?>
<!DOCTYPE svg PUBLIC "-//W3C//DTD SVG 1.1//EN" "http://www.w3.org/Graphics/SVG/1.1/DTD/svg11.dtd">
<svg xmlns:xlink="http://www.w3.org/1999/xlink" version="1.1" xmlns="http://www.w3.org/2000/svg" viewBox="-3 -3 306 506" width="306" height="506" preserveAspectRatio="xMinYMin meet">
  <symbol id="_2B_v0" viewBox="0 0 1 1" overflow="visible"/>
  <symbol id="_2D_v0" viewBox="0 0 100 1" overflow="visible">
    <line x2="100" stroke="black" stroke-width="6" stroke-linecap="round"/>
  </symbol>
  <symbol id="_7C_v0" viewBox="0 0 1 100" overflow="visible">
    <line y2="100" stroke="black" stroke-width="6" stroke-linecap="round"/>
  </symbol>
  <symbol id="_23" viewBox="0 0 100 100" overflow="visible">
    <rect width="100" height="100" fill="#f7f6ba" stroke="#a9a9a9" stroke-width="4"/>
  </symbol>
  <symbol id="_20_v0" viewBox="0 0 1 100" overflow="visible"/>
  <symbol id="_20_v1" viewBox="0 0 100 1" overflow="visible"/>
  <symbol id="_2B_v1" viewBox="0 0 1 1" overflow="visible">
    <line y1="17" stroke="white" stroke-width="5" stroke-linecap="round"/>
  </symbol>
  <symbol id="_7C_v1" viewBox="0 0 1 100" overflow="visible">
    <line y2="100" stroke="black" stroke-width="17" stroke-linecap="round"/>
    <line y2="100" stroke="white" stroke-width="5" stroke-linecap="round"/>
  </symbol>
  <symbol id="_2B_v2" viewBox="0 0 1 1" overflow="visible">
    <line y1="-17" stroke="white" stroke-width="5" stroke-linecap="round"/>
    <line y1="17" stroke="white" stroke-width="5" stroke-linecap="round"/>
  </symbol>
  <symbol id="_2B_v3" viewBox="0 0 1 1" overflow="visible">
    <line x1="17" stroke="white" stroke-width="5" stroke-linecap="round"/>
    <line y1="-17" stroke="white" stroke-width="5" stroke-linecap="round"/>
  </symbol>
  <symbol id="_2D_v1" viewBox="0 0 100 1" overflow="visible">
    <line x2="100" stroke="black" stroke-width="17" stroke-linecap="round"/>
    <line x2="100" stroke="white" stroke-width="5" stroke-linecap="round"/>
  </symbol>
  <symbol id="_2B_v4" viewBox="0 0 1 1" overflow="visible">
    <line x1="-17" stroke="white" stroke-width="5" stroke-linecap="round"/>
    <line y1="-17" stroke="white" stroke-width="5" stroke-linecap="round"/>
  </symbol>
  <use xlink:href="#_23" x="0" y="0" width="100" height="100"/>
  <use xlink:href="#_20_v0" x="100" y="0" width="1" height="100"/>
  <use xlink:href="#_23" x="100" y="0" width="100" height="100"/>
  <use xlink:href="#_20_v0" x="200" y="0" width="1" height="100"/>
  <use xlink:href="#_23" x="200" y="0" width="100" height="100"/>
  <use xlink:href="#_20_v1" x="0" y="100" width="100" height="1"/>
  <use xlink:href="#_20_v1" x="100" y="100" width="100" height="1"/>
  <use xlink:href="#_20_v1" x="200" y="100" width="100" height="1"/>
  <use xlink:href="#_23" x="0" y="100" width="100" height="100"/>
  <use xlink:href="#_20_v0" x="100" y="100" width="1" height="100"/>
  <use xlink:href="#_23" x="100" y="100" width="100" height="100"/>
  <use xlink:href="#_23" x="200" y="100" width="100" height="100"/>
  <use xlink:href="#_20_v1" x="0" y="200" width="100" height="1"/>
  <use xlink:href="#_20_v1" x="100" y="200" width="100" height="1"/>
  <use xlink:href="#_20_v1" x="200" y="200" width="100" height="1"/>
  <use xlink:href="#_23" x="0" y="200" width="100" height="100"/>
  <use xlink:href="#_20_v0" x="100" y="200" width="1" height="100"/>
  <use xlink:href="#_23" x="100" y="200" width="100" height="100"/>
  <use xlink:href="#_23" x="200" y="200" width="100" height="100"/>
  <use xlink:href="#_20_v1" x="0" y="300" width="100" height="1"/>
  <use xlink:href="#_20_v1" x="100" y="300" width="100" height="1"/>
  <use xlink:href="#_20_v1" x="200" y="300" width="100" height="1"/>
  <use xlink:href="#_23" x="0" y="300" width="100" height="100"/>
  <use xlink:href="#_23" x="100" y="300" width="100" height="100"/>
  <use xlink:href="#_23" x="200" y="300" width="100" height="100"/>
  <use xlink:href="#_20_v1" x="0" y="400" width="100" height="1"/>
  <use xlink:href="#_20_v1" x="200" y="400" width="100" height="1"/>
  <use xlink:href="#_23" x="0" y="400" width="100" height="100"/>
  <use xlink:href="#_20_v0" x="100" y="400" width="1" height="100"/>
  <use xlink:href="#_23" x="100" y="400" width="100" height="100"/>
  <use xlink:href="#_20_v0" x="200" y="400" width="1" height="100"/>
  <use xlink:href="#_23" x="200" y="400" width="100" height="100"/>
  <use xlink:href="#_2D_v0" x="0" y="0" width="100" height="1"/>
  <use xlink:href="#_2D_v0" x="100" y="0" width="100" height="1"/>
  <use xlink:href="#_2D_v0" x="200" y="0" width="100" height="1"/>
  <use xlink:href="#_7C_v0" x="0" y="0" width="1" height="100"/>
  <use xlink:href="#_7C_v0" x="300" y="0" width="1" height="100"/>
  <use xlink:href="#_7C_v0" x="0" y="100" width="1" height="100"/>
  <use xlink:href="#_7C_v1" x="200" y="100" width="1" height="100"/>
  <use xlink:href="#_7C_v0" x="300" y="100" width="1" height="100"/>
  <use xlink:href="#_7C_v0" x="0" y="200" width="1" height="100"/>
  <use xlink:href="#_7C_v1" x="200" y="200" width="1" height="100"/>
  <use xlink:href="#_7C_v0" x="300" y="200" width="1" height="100"/>
  <use xlink:href="#_7C_v0" x="0" y="300" width="1" height="100"/>
  <use xlink:href="#_7C_v1" x="100" y="300" width="1" height="100"/>
  <use xlink:href="#_7C_v1" x="200" y="300" width="1" height="100"/>
  <use xlink:href="#_7C_v0" x="300" y="300" width="1" height="100"/>
  <use xlink:href="#_2D_v1" x="100" y="400" width="100" height="1"/>
  <use xlink:href="#_7C_v0" x="0" y="400" width="1" height="100"/>
  <use xlink:href="#_7C_v0" x="300" y="400" width="1" height="100"/>
  <use xlink:href="#_2D_v0" x="0" y="500" width="100" height="1"/>
  <use xlink:href="#_2D_v0" x="100" y="500" width="100" height="1"/>
  <use xlink:href="#_2D_v0" x="200" y="500" width="100" height="1"/>
  <use xlink:href="#_2B_v0" x="0" y="0" width="1" height="1"/>
  <use xlink:href="#_2B_v0" x="100" y="0" width="1" height="1"/>
  <use xlink:href="#_2B_v0" x="200" y="0" width="1" height="1"/>
  <use xlink:href="#_2B_v0" x="300" y="0" width="1" height="1"/>
  <use xlink:href="#_2B_v0" x="0" y="100" width="1" height="1"/>
  <use xlink:href="#_2B_v0" x="100" y="100" width="1" height="1"/>
  <use xlink:href="#_2B_v1" x="200" y="100" width="1" height="1"/>
  <use xlink:href="#_2B_v0" x="300" y="100" width="1" height="1"/>
  <use xlink:href="#_2B_v0" x="0" y="200" width="1" height="1"/>
  <use xlink:href="#_2B_v0" x="100" y="200" width="1" height="1"/>
  <use xlink:href="#_2B_v2" x="200" y="200" width="1" height="1"/>
  <use xlink:href="#_2B_v0" x="300" y="200" width="1" height="1"/>
  <use xlink:href="#_2B_v0" x="0" y="300" width="1" height="1"/>
  <use xlink:href="#_2B_v1" x="100" y="300" width="1" height="1"/>
  <use xlink:href="#_2B_v2" x="200" y="300" width="1" height="1"/>
  <use xlink:href="#_2B_v0" x="300" y="300" width="1" height="1"/>
  <use xlink:href="#_2B_v0" x="0" y="400" width="1" height="1"/>
  <use xlink:href="#_2B_v3" x="100" y="400" width="1" height="1"/>
  <use xlink:href="#_2B_v4" x="200" y="400" width="1" height="1"/>
  <use xlink:href="#_2B_v0" x="300" y="400" width="1" height="1"/>
  <use xlink:href="#_2B_v0" x="0" y="500" width="1" height="1"/>
  <use xlink:href="#_2B_v0" x="100" y="500" width="1" height="1"/>
  <use xlink:href="#_2B_v0" x="200" y="500" width="1" height="1"/>
  <use xlink:href="#_2B_v0" x="300" y="500" width="1" height="1"/>
</svg>